<?xml version="1.0" encoding="utf-8"?>
<!-- Generator: Adobe Illustrator 20.0.0, SVG Export Plug-In . SVG Version: 6.00 Build 0)  -->
<svg version="1.1" id="Слой_1" xmlns="http://www.w3.org/2000/svg" xmlns:xlink="http://www.w3.org/1999/xlink" x="0px" y="0px"
	 viewBox="0 0 833.4 234.6" style="enable-background:new 0 0 833.4 234.6;" xml:space="preserve">
<style type="text/css">
	.st0{clip-path:url(#SVGID_2_);}
	.st1{filter:url(#Adobe_OpacityMaskFilter);}
	.st2{clip-path:url(#SVGID_4_);fill:url(#SVGID_6_);}
	.st3{clip-path:url(#SVGID_4_);mask:url(#SVGID_5_);fill:url(#SVGID_7_);}
	.st4{clip-path:url(#SVGID_9_);fill:#FFFFFF;}
	.st5{clip-path:url(#SVGID_9_);}
	.st6{clip-path:url(#SVGID_9_);fill:#ED0606;}
</style>
<g>
	<defs>
		<rect id="SVGID_1_" width="833.4" height="234.6"/>
	</defs>
	<clipPath id="SVGID_2_">
		<use xlink:href="#SVGID_1_"  style="overflow:visible;"/>
	</clipPath>
	<g class="st0">
		<defs>
			<rect id="SVGID_3_" x="8.2" y="0" width="257.2" height="228.5"/>
		</defs>
		<clipPath id="SVGID_4_">
			<use xlink:href="#SVGID_3_"  style="overflow:visible;"/>
		</clipPath>
		<defs>
			<filter id="Adobe_OpacityMaskFilter" filterUnits="userSpaceOnUse" x="8.2" y="0" width="257.2" height="228.5">
				<feColorMatrix  type="matrix" values="1 0 0 0 0  0 1 0 0 0  0 0 1 0 0  0 0 0 1 0"/>
			</filter>
		</defs>
		<mask maskUnits="userSpaceOnUse" x="8.2" y="0" width="257.2" height="228.5" id="SVGID_5_">
			<g class="st1">
				
					<linearGradient id="SVGID_6_" gradientUnits="userSpaceOnUse" x1="0" y1="234.57" x2="1" y2="234.57" gradientTransform="matrix(0 157.0858 157.0858 0 -36710.8594 34.2568)">
					<stop  offset="0" style="stop-color:#000000"/>
					<stop  offset="0.5162" style="stop-color:#FFFFFF"/>
					<stop  offset="1" style="stop-color:#000000"/>
				</linearGradient>
				<rect x="8.2" y="0" class="st2" width="257.2" height="228.5"/>
			</g>
		</mask>
		
			<linearGradient id="SVGID_7_" gradientUnits="userSpaceOnUse" x1="0" y1="234.57" x2="1" y2="234.57" gradientTransform="matrix(0 157.0859 157.0859 0 -36710.8633 34.2568)">
			<stop  offset="0" style="stop-color:#FFFFFF"/>
			<stop  offset="0.5162" style="stop-color:#CBCCCE"/>
			<stop  offset="1" style="stop-color:#FFFFFF"/>
		</linearGradient>
		<rect x="8.2" y="0" class="st3" width="257.2" height="228.5"/>
	</g>
	<g class="st0">
		<defs>
			<rect id="SVGID_8_" width="833.4" height="234.6"/>
		</defs>
		<clipPath id="SVGID_9_">
			<use xlink:href="#SVGID_8_"  style="overflow:visible;"/>
		</clipPath>
		<path class="st4" d="M272.2,204.2h-5.5c-0.7,0-1.4-0.6-1.4-1.4V25.6c0-0.7,0.6-1.4,1.4-1.4h5.5c0.7,0,1.4,0.6,1.4,1.4v177.3
			C273.5,203.6,272.9,204.2,272.2,204.2"/>
		<path class="st5" d="M333.7,89.4L332.8,76h2.7c1.3,5,3.6,9,6.9,12c3.3,3.1,7.2,4.6,11.7,4.6c3.8,0,7-1.2,9.5-3.5
			c2.5-2.3,3.7-5.3,3.7-8.9c0-3.4-1.2-6.2-3.5-8.5c-2.4-2.3-6.1-4.6-11.3-7.1c-2.7-1.3-4.9-2.5-6.7-3.6c-1.8-1.1-3.7-2.5-5.7-4.2
			c-4-3.4-6-7.8-6-13.1c0-4.9,1.8-8.9,5.5-12c3.6-3.1,9-4.7,15.9-4.7c2.9,0,5.6,0.3,7.9,0.9c2.3,0.7,3.7,1.1,5.6,2
			c2,1.1,2.2,1.1,3.9,2.3c0.8,0.6,1.2,0.9,1.4,1l0.4,13.6h-2.5c-2.8-10.9-8.3-16.3-16.6-16.3c-3.7,0-6.6,1-8.4,2.9
			c-1.9,1.9-2.9,4.3-2.9,7.2c0,2.9,1.1,5.4,3.3,7.5c2.1,2.1,5.7,4.4,10.5,6.7c2.3,1.1,4.1,2,5.3,2.6c1.2,0.6,2.9,1.6,5.1,3.1
			c2.2,1.5,3.9,2.9,5.1,4.3c2.4,2.8,4.7,7.3,4.7,12.2c0,5.7-2.3,10.2-6.9,13.8c-4.6,3.5-10.2,5.3-16.9,5.3
			C347.1,96,340.2,93.8,333.7,89.4"/>
		<path class="st5" d="M386.1,94.8v-2.3c3.5-0.7,5.8-1.4,6.8-2.1c1.3-1.1,2-3.2,1.9-6.2V39.3c0-3.2-0.2-5.1-2.1-6.3
			c-1-0.6-1.7-0.9-2.2-1.1c-0.5-0.2-1.6-0.4-3.5-0.7c-0.4-0.1-0.6-0.2-0.9-0.2v-2.3h29.8V31c-0.2,0.1-2.9,0.5-3.1,0.6
			c-0.3,0.1-0.7,0.2-1.4,0.3c-1.4,0.4-1.4,0.6-2.5,1.1c-1.3,0.6-1.8,1.5-2.4,2.9c-0.2,0.8-0.5,2-0.5,3.5V83c0,3.5,0.6,5.7,1.8,6.6
			c1.2,0.9,3.8,1.4,8,1.4h7.4c4.2,0,7.4-0.9,9.7-2.7c2.3-1.8,4.3-5.1,6.3-9.9h2.8l-4.3,16.3H386.1z"/>
		<path class="st5" d="M458.4,86.3c-6.3-6.5-9.5-14.6-9.5-24.4s3.2-18.1,9.6-24.8c6.3-6.7,14.4-10,24.2-10c9.7,0,17.6,3.3,23.9,9.8
			c6.3,6.6,9.4,14.7,9.4,24.5s-3.2,18-9.5,24.7c-6.3,6.7-14.4,10-24.2,10C472.7,96,464.7,92.8,458.4,86.3 M498.5,84.8
			c3.7-5,5.6-11.7,5.6-20.3c0-9.9-2.2-17.9-6.6-24.2c-4.3-6.3-9.9-9.4-16.5-9.4c-5.9,0-10.6,2.5-14.3,7.5c-3.7,5-5.6,11.8-5.6,20.4
			c0,9.8,2.2,17.8,6.6,24.1c4.4,6.3,9.8,9.5,16.5,9.5C490,92.2,494.7,89.7,498.5,84.8"/>
		<path class="st5" d="M580.7,27.7l0.8,18.5h-2.2c-0.8-5-2.2-8.5-4.2-10.7c-2-2.2-5.7-3.3-11.1-3.3h-6v52.1c0,2.8,0.9,4.6,1.5,5.6
			c0.3,0.6,1.1,1,2.3,1.4c1.2,0.4,2.1,0.7,2.7,0.8c0.6,0.1,1.8,0.3,3.7,0.6v2.3h-31.5v-2.3c1.9-0.3,3.2-0.5,3.8-0.6
			c0.6-0.1,1.4-0.4,2.6-0.8c1.2-0.4,1.9-0.8,2.3-1.4c0.6-1,1.5-2.8,1.5-5.6V32.1h-5.6c-5.5,0-9.2,1.1-11.3,3.3
			c-2.1,2.2-3.6,5.8-4.4,10.8h-2.2l0.9-18.5l5.3,1.1h45.8L580.7,27.7z"/>
		<path class="st5" d="M590.8,89.4L589.9,76h2.7c1.3,5,3.6,9,6.9,12c3.3,3.1,7.2,4.6,11.7,4.6c3.8,0,7-1.2,9.5-3.5
			c2.5-2.3,3.7-5.3,3.7-8.9c0-3.4-1.2-6.2-3.5-8.5c-2.4-2.3-6.1-4.6-11.3-7.1c-2.7-1.3-4.9-2.5-6.7-3.6c-1.8-1.1-3.7-2.5-5.7-4.2
			c-4-3.4-6-7.8-6-13.1c0-4.9,1.8-8.9,5.5-12c3.6-3.1,9-4.7,15.9-4.7c2.9,0,5.6,0.3,7.9,0.9c2.3,0.7,3.7,1.1,5.6,2
			c2,1.1,2.1,1.1,3.9,2.3c0.8,0.6,1.2,0.9,1.4,1l0.4,13.6h-2.5c-2.8-10.9-8.3-16.3-16.6-16.3c-3.7,0-6.6,1-8.4,2.9
			c-1.9,1.9-2.9,4.3-2.9,7.2c0,2.9,1.1,5.4,3.3,7.5c2.1,2.1,5.7,4.4,10.5,6.7c2.3,1.1,4.1,2,5.3,2.6c1.2,0.6,2.9,1.6,5.1,3.1
			c2.2,1.5,3.9,2.9,5.1,4.3c2.4,2.8,4.7,7.3,4.7,12.2c0,5.7-2.3,10.2-6.9,13.8c-4.6,3.5-10.2,5.3-16.9,5.3
			C604.2,96,597.3,93.8,590.8,89.4"/>
		<path class="st6" d="M333.7,86.4L332.8,73h2.7c1.3,5,3.6,9,6.9,12c3.3,3.1,7.2,4.6,11.7,4.6c3.8,0,7-1.2,9.5-3.5
			c2.5-2.3,3.7-5.3,3.7-8.9c0-3.4-1.2-6.2-3.5-8.5c-2.4-2.3-6.1-4.6-11.3-7.1c-2.7-1.3-4.9-2.5-6.7-3.6c-1.8-1.1-3.7-2.5-5.7-4.2
			c-4-3.4-6-7.8-6-13.1c0-4.9,1.8-8.9,5.5-12c3.6-3.1,9-4.7,15.9-4.7c2.9,0,5.6,0.3,7.9,0.9c2.3,0.7,3.7,1.1,5.6,2
			c2,1.1,2.2,1.1,3.9,2.3c0.8,0.6,1.2,0.9,1.4,1l0.4,13.6h-2.5c-2.8-10.9-8.3-16.3-16.6-16.3c-3.7,0-6.6,1-8.4,2.9
			c-1.9,1.9-2.9,4.3-2.9,7.2c0,2.9,1.1,5.4,3.3,7.5c2.1,2.1,5.7,4.4,10.5,6.7c2.3,1.1,4.1,2,5.3,2.6c1.2,0.6,2.9,1.6,5.1,3.1
			c2.2,1.5,3.9,2.9,5.1,4.3c2.4,2.8,4.7,7.3,4.7,12.2c0,5.7-2.3,10.2-6.9,13.8c-4.6,3.5-10.2,5.3-16.9,5.3
			C347.1,93,340.2,90.8,333.7,86.4"/>
		<path class="st6" d="M386.1,91.7v-2.3c3.5-0.7,5.8-1.4,6.8-2.1c1.3-1.1,2-3.2,1.9-6.2V36.3c0-3.2-0.2-5.1-2.1-6.3
			c-1-0.6-1.7-0.9-2.2-1.1c-0.5-0.2-1.6-0.4-3.5-0.7c-0.4-0.1-0.6-0.2-0.9-0.2v-2.3h29.8V28c-0.2,0.1-2.9,0.5-3.1,0.6
			c-0.3,0.1-0.7,0.2-1.4,0.3c-1.4,0.4-1.4,0.6-2.5,1.1c-1.3,0.6-1.8,1.5-2.4,2.9c-0.2,0.8-0.5,2-0.5,3.5V80c0,3.5,0.6,5.7,1.8,6.6
			c1.2,0.9,3.8,1.4,8,1.4h7.4c4.2,0,7.4-0.9,9.7-2.7c2.3-1.8,4.3-5.1,6.3-9.9h2.8l-4.3,16.3H386.1z"/>
		<path class="st6" d="M458.4,83.2c-6.3-6.5-9.5-14.6-9.5-24.4c0-9.8,3.2-18.1,9.6-24.8c6.3-6.7,14.4-10,24.2-10
			c9.7,0,17.6,3.3,23.9,9.8c6.3,6.6,9.4,14.7,9.4,24.5c0,9.8-3.2,18-9.5,24.7c-6.3,6.7-14.4,10-24.2,10
			C472.7,93,464.7,89.7,458.4,83.2 M498.5,81.8c3.7-5,5.6-11.7,5.6-20.3c0-9.9-2.2-17.9-6.6-24.2c-4.3-6.3-9.9-9.4-16.5-9.4
			c-5.9,0-10.6,2.5-14.3,7.5c-3.7,5-5.6,11.8-5.6,20.4c0,9.8,2.2,17.8,6.6,24.1c4.4,6.3,9.8,9.5,16.5,9.5
			C490,89.2,494.7,86.7,498.5,81.8"/>
		<path class="st6" d="M580.7,24.6l0.8,18.5h-2.2c-0.8-5-2.2-8.5-4.2-10.7c-2-2.2-5.7-3.3-11.1-3.3h-6v52.1c0,2.8,0.9,4.6,1.5,5.6
			c0.3,0.6,1.1,1,2.3,1.4c1.2,0.4,2.1,0.7,2.7,0.8s1.8,0.3,3.7,0.6v2.3h-31.5v-2.3c1.9-0.3,3.2-0.5,3.8-0.6c0.6-0.1,1.4-0.4,2.6-0.8
			c1.2-0.4,1.9-0.8,2.3-1.4c0.6-1,1.5-2.8,1.5-5.6V29h-5.6c-5.5,0-9.2,1.1-11.3,3.3c-2.1,2.2-3.6,5.8-4.4,10.8h-2.2l0.9-18.5
			l5.3,1.1h45.8L580.7,24.6z"/>
		<path class="st6" d="M590.8,86.4L589.9,73h2.7c1.3,5,3.6,9,6.9,12c3.3,3.1,7.2,4.6,11.7,4.6c3.8,0,7-1.2,9.5-3.5
			c2.5-2.3,3.7-5.3,3.7-8.9c0-3.4-1.2-6.2-3.5-8.5c-2.4-2.3-6.1-4.6-11.3-7.1c-2.7-1.3-4.9-2.5-6.7-3.6c-1.8-1.1-3.7-2.5-5.7-4.2
			c-4-3.4-6-7.8-6-13.1c0-4.9,1.8-8.9,5.5-12c3.6-3.1,9-4.7,15.9-4.7c2.9,0,5.6,0.3,7.9,0.9c2.3,0.7,3.7,1.1,5.6,2
			c2,1.1,2.1,1.1,3.9,2.3c0.8,0.6,1.2,0.9,1.4,1l0.4,13.6h-2.5c-2.8-10.9-8.3-16.3-16.6-16.3c-3.7,0-6.6,1-8.4,2.9
			c-1.9,1.9-2.9,4.3-2.9,7.2c0,2.9,1.1,5.4,3.3,7.5c2.1,2.1,5.7,4.4,10.5,6.7c2.3,1.1,4.1,2,5.3,2.6c1.2,0.6,2.9,1.6,5.1,3.1
			c2.2,1.5,3.9,2.9,5.1,4.3c2.4,2.8,4.7,7.3,4.7,12.2c0,5.7-2.3,10.2-6.9,13.8c-4.6,3.5-10.2,5.3-16.9,5.3
			C604.2,93,597.3,90.8,590.8,86.4"/>
		<path class="st4" d="M6.8,204.2H1.4c-0.7,0-1.4-0.6-1.4-1.4V25.6c0-0.7,0.6-1.4,1.4-1.4h5.5c0.7,0,1.4,0.6,1.4,1.4v177.3
			C8.2,203.6,7.6,204.2,6.8,204.2"/>
		<path class="st5" d="M85.1,12.1l-0.9-6h-7.4L58.2,67.1h7.4c3.8-8.1,7.9-14.1,12.6-17.9c4.7-3.8,8.8-6,12.8-6.7
			c3.8-0.7,10-1,18.5-1h78c-46.4,69.7-78.7,134-97.1,193.2h29.3c17.1-73.3,49-145.7,95.7-217.2l-3.8-5.3H85.1z"/>
		<path class="st6" d="M85.1,6l-0.9-6h-7.4L58.2,61.1h7.4c3.8-8.1,7.9-14.1,12.6-17.9c4.7-3.8,8.8-6,12.8-6.7c3.8-0.7,10-1,18.5-1
			h78c-46.4,69.7-78.7,134-97.1,193.2h29.3c17.1-73.3,49-145.7,95.7-217.2L211.5,6H85.1z"/>
		<path class="st4" d="M353.9,165.1V187c0,3.1,0.1,5.3,0.4,6.7c0.2,1.4,0.6,2.4,1.1,3.2c0.5,0.7,1.1,1.3,1.9,1.7
			c0.8,0.5,2.2,1,4.2,1.5v3.2h-27.2v-3.2c2.7-0.7,4.4-1.5,5.4-2.3c0.9-0.8,1.5-2,1.8-3.6c0.3-1.5,0.4-3.9,0.4-7.1v-55.8
			c0-3-0.1-5.1-0.3-6.5c-0.2-1.4-0.6-2.4-1.1-3.2c-0.5-0.8-1.1-1.4-2-1.8c-0.8-0.5-2.2-1-4.2-1.5v-3.2h31.9
			c10.1,0,17.6,1.8,22.6,5.5c5,3.7,7.5,9.3,7.5,17c0,5.9-1.6,10.9-4.9,15c-3.2,4.1-8.1,7.3-14.6,9.7v0.5c2.6,1.1,4.9,2.6,6.7,4.6
			s3.9,5.1,6.2,9.3l5.8,10.6c1.7,3.1,3.1,5.5,4.3,7.1c1.2,1.6,2.4,2.9,3.7,3.7c1.2,0.9,2.9,1.5,5,1.8v3.2h-17.9
			c-1.6-2.3-3.2-4.7-4.6-7.4c-1.5-2.6-2.9-5.3-4.3-8l-5.7-10.8c-1.7-3.3-3.1-5.7-4.2-7.2c-1.1-1.5-2.1-2.6-3-3.3
			c-0.9-0.6-1.9-1.1-3-1.3c-1.1-0.2-2.6-0.4-4.7-0.4H353.9z M353.9,121.2v38.3h7.3c3.7,0,6.8-0.3,9.1-0.8c2.3-0.5,4.5-1.6,6.4-3.1
			c2-1.5,3.6-3.6,4.7-6.3c1.2-2.7,1.8-6,1.8-9.9c0-4.1-0.7-7.5-2.1-10.2c-1.4-2.7-3.5-4.8-6.4-6.2c-2.8-1.4-6.7-2.1-11.5-2.1
			C359.4,121,356.3,121.1,353.9,121.2"/>
		<path class="st4" d="M476.5,115.3v19.5h-6.3c-0.6-2.1-1.3-4-2-5.5c-0.7-1.6-1.4-2.9-2.1-4c-0.7-1.1-1.5-1.9-2.4-2.6
			c-0.9-0.6-1.9-1.1-3.1-1.3c-1.2-0.2-2.6-0.4-4.3-0.4h-20.4v33.8h13.8c1.9,0,3.4-0.3,4.4-0.8c1.1-0.5,2-1.5,2.7-2.7
			c0.7-1.3,1.4-3.3,2-6.1h6.1v24.8h-6.1c-0.6-2.6-1.3-4.5-2-5.8c-0.7-1.3-1.6-2.2-2.6-2.8c-1-0.6-2.5-0.8-4.5-0.8h-13.8v37.2h20.1
			c2.1,0,3.8-0.2,5.1-0.5c1.3-0.4,2.4-1,3.4-1.9c0.9-0.9,1.8-2,2.5-3.4c0.7-1.4,1.3-2.9,1.8-4.4c0.5-1.5,1.2-3.8,2-6.7h6.4
			l-1.2,22.6h-59.7v-3.2c2.7-0.7,4.4-1.5,5.4-2.3c0.9-0.8,1.5-2,1.8-3.6c0.3-1.5,0.4-3.9,0.4-7.1v-55.8c0-3-0.1-5.1-0.3-6.5
			c-0.2-1.4-0.6-2.4-1.1-3.2c-0.5-0.8-1.1-1.4-2-1.8c-0.8-0.5-2.2-1-4.2-1.5v-3.2H476.5z"/>
		<path class="st4" d="M534.7,203.3v-3.2c2.1-0.4,3.7-0.9,4.8-1.4c1.1-0.5,1.8-1.2,2.4-2.2c0.5-0.9,0.8-2.2,0.8-3.7
			c0-1.5-0.2-3-0.5-4.7c-0.3-1.7-0.8-3.6-1.5-5.7l-2.4-8.3h-30l-2.2,6.3c-1.1,3.2-1.8,5.6-2.2,7.2c-0.3,1.6-0.5,3.1-0.5,4.4
			c0,2.6,0.7,4.5,2,5.7c1.3,1.2,3.3,2,6,2.4v3.2h-27.5v-3.2c2.4-0.4,4.5-1.8,6.3-4.2c1.8-2.4,3.5-5.8,5.2-10.3l26.9-71.4h10.2
			l21.9,71.9c1,3.4,1.9,5.9,2.7,7.7c0.8,1.8,1.8,3.1,2.9,4.1c1.1,1,2.6,1.7,4.6,2.2v3.2H534.7z M509.9,168.5h26.9l-12.3-41.6
			L509.9,168.5z"/>
		<path class="st4" d="M593.1,197.4h16.9c1.8,0,3.4-0.1,4.6-0.3c1.2-0.2,2.3-0.5,3.2-1c0.9-0.5,1.7-1.1,2.4-1.9
			c0.7-0.8,1.4-1.8,2-3.1c0.6-1.3,1.3-2.9,1.8-4.9c0.6-2,1.3-4.9,2.2-8.8h6.5l-1.3,25.9h-58v-3.2c2.7-0.7,4.5-1.5,5.4-2.3
			c0.9-0.8,1.5-2,1.8-3.6c0.3-1.5,0.4-3.9,0.4-7.1v-55.8c0-3-0.1-5.1-0.3-6.5c-0.2-1.4-0.6-2.4-1.1-3.2c-0.5-0.8-1.1-1.4-2-1.8
			c-0.8-0.5-2.2-1-4.2-1.5v-3.2h27.1v3.2c-1.9,0.5-3.2,1-4,1.4c-0.8,0.4-1.5,1-2,1.6c-0.5,0.7-0.9,1.7-1.2,3.2
			c-0.3,1.4-0.4,3.7-0.4,6.8V197.4z"/>
		<path class="st4" d="M664,187.2c0,2.9,0.1,5,0.3,6.3c0.2,1.3,0.5,2.4,1,3.2c0.5,0.8,1.1,1.4,2,1.9c0.9,0.5,2.3,1,4.3,1.5v3.2
			h-27.2v-3.2c2.7-0.7,4.5-1.5,5.4-2.3c0.9-0.8,1.5-2,1.8-3.6c0.3-1.5,0.4-3.9,0.4-7.1v-55.8c0-3-0.1-5.1-0.3-6.5
			c-0.2-1.4-0.6-2.4-1.1-3.2c-0.5-0.8-1.2-1.4-2-1.8c-0.8-0.4-2.2-1-4.2-1.5v-3.2h27.2v3.2c-1.9,0.5-3.3,0.9-4.1,1.4
			c-0.8,0.5-1.5,1.1-2,1.8c-0.5,0.7-0.9,1.8-1.1,3.2c-0.2,1.4-0.4,3.6-0.4,6.6V187.2z"/>
		<path class="st4" d="M683.6,115.3h69.8v22.4H747c-0.9-3.7-1.9-6.6-2.8-8.8c-0.9-2.1-1.9-3.8-2.9-4.9c-1-1.1-2.1-1.9-3.3-2.4
			c-1.2-0.5-3-0.7-5.3-0.7h-8.2v66c0,2.5,0.1,4.6,0.4,6.1c0.3,1.5,0.7,2.7,1.3,3.6c0.6,0.9,1.4,1.6,2.4,2.1c1,0.5,2.5,1,4.6,1.5v3.2
			h-29.5v-3.2c1.3-0.3,2.4-0.6,3.4-1c1-0.3,1.8-0.8,2.4-1.3c0.6-0.5,1.1-1.1,1.5-1.9c0.4-0.8,0.7-1.8,1-3.2c0.2-1.3,0.4-3.3,0.4-5.9
			v-66h-8.1c-2,0-3.7,0.2-5,0.6c-1.3,0.4-2.5,1.2-3.6,2.4c-1.1,1.2-2.1,3-3.1,5.2c-0.9,2.3-1.8,5.1-2.6,8.5h-6.4V115.3z"/>
		<path class="st4" d="M788.7,166.4l-17.8-33.1c-2.1-4-3.8-6.9-4.9-8.6c-1.1-1.7-2.2-3.1-3.4-4.1c-1.1-1-2.4-1.7-3.9-2.2v-3.2h27.5
			v3.2c-4,0.5-6.1,2.2-6.1,5.2c0,1.2,0.3,2.6,0.9,4.2c0.6,1.5,1.6,3.7,3.1,6.6l12.9,24.6l12.7-22.4c1.7-3.1,2.9-5.6,3.6-7.5
			c0.7-2,1.1-3.8,1.1-5.4c0-1.5-0.5-2.8-1.4-3.6c-0.9-0.9-2.3-1.4-4.1-1.6v-3.2h24.4v3.2c-1.8,0.6-3.3,1.5-4.6,2.7
			c-1.3,1.1-2.7,2.7-4.1,4.6c-1.4,1.9-3.4,5.2-6.1,9.8l-17.9,30.6V187c0,2.4,0.1,4.4,0.4,5.9c0.3,1.5,0.7,2.7,1.3,3.6
			c0.6,0.9,1.4,1.6,2.4,2.1c1,0.5,2.5,1,4.6,1.5v3.2H780v-3.2c2.1-0.4,3.6-0.9,4.6-1.4c1-0.5,1.8-1.2,2.4-2.1c0.6-0.9,1-2.1,1.3-3.6
			c0.3-1.5,0.4-3.5,0.4-6V166.4z"/>
	</g>
</g>
</svg>
